<svg xmlns="http://www.w3.org/2000/svg" xmlns:xlink="http://www.w3.org/1999/xlink" width="500" zoomAndPan="magnify" viewBox="0 0 375 374.999991" height="500" preserveAspectRatio="xMidYMid meet" version="1.0"><defs><g/></defs><g fill="#0b3c5d" fill-opacity="1"><g transform="translate(4.949699, 213.419907)"><g><path d="M 2.484375 -56.28125 L 18.015625 -56.28125 C 22.035156 -56.28125 25.050781 -55.164062 27.0625 -52.9375 C 29.070312 -50.707031 30.097656 -47.410156 30.140625 -43.046875 L 30.265625 -16.703125 C 30.304688 -11.160156 29.34375 -6.988281 27.375 -4.1875 C 25.414062 -1.394531 22.164062 0 17.625 0 L 2.484375 0 Z M 15.796875 -9.953125 C 17.847656 -9.953125 18.875 -10.957031 18.875 -12.96875 L 18.875 -42 C 18.875 -43.257812 18.773438 -44.207031 18.578125 -44.84375 C 18.378906 -45.476562 18.015625 -45.90625 17.484375 -46.125 C 16.960938 -46.34375 16.15625 -46.453125 15.0625 -46.453125 L 13.828125 -46.453125 L 13.828125 -9.953125 Z M 15.796875 -9.953125 "/></g></g></g><g fill="#0b3c5d" fill-opacity="1"><g transform="translate(37.244751, 213.419907)"><g><path d="M 11 0.53125 C 7.289062 0.53125 4.75 -0.703125 3.375 -3.171875 C 2 -5.640625 1.3125 -9.171875 1.3125 -13.765625 C 1.3125 -17.515625 1.800781 -20.394531 2.78125 -22.40625 C 3.769531 -24.414062 5.132812 -25.890625 6.875 -26.828125 C 8.625 -27.765625 11.289062 -28.800781 14.875 -29.9375 L 18.015625 -30.984375 L 18.015625 -35.90625 C 18.015625 -37.164062 17.765625 -38.132812 17.265625 -38.8125 C 16.765625 -39.488281 16.164062 -39.828125 15.46875 -39.828125 C 14.851562 -39.828125 14.316406 -39.539062 13.859375 -38.96875 C 13.398438 -38.40625 13.171875 -37.644531 13.171875 -36.6875 L 13.171875 -33.8125 L 2.03125 -33.8125 L 2.03125 -35.375 C 2.03125 -40.09375 3.128906 -43.457031 5.328125 -45.46875 C 7.535156 -47.476562 11.128906 -48.484375 16.109375 -48.484375 C 20.085938 -48.484375 23.320312 -47.441406 25.8125 -45.359375 C 28.300781 -43.285156 29.546875 -40.351562 29.546875 -36.5625 L 29.546875 0 L 18.140625 0 L 18.140625 -5.703125 C 17.578125 -3.734375 16.671875 -2.203125 15.421875 -1.109375 C 14.179688 -0.015625 12.707031 0.53125 11 0.53125 Z M 15.53125 -8.390625 C 16.40625 -8.390625 17.023438 -8.75 17.390625 -9.46875 C 17.765625 -10.1875 17.953125 -11.070312 17.953125 -12.125 L 17.953125 -25.484375 C 16.242188 -24.828125 14.984375 -23.992188 14.171875 -22.984375 C 13.367188 -21.984375 12.96875 -20.585938 12.96875 -18.796875 L 12.96875 -12.640625 C 12.96875 -9.804688 13.820312 -8.390625 15.53125 -8.390625 Z M 15.53125 -8.390625 "/></g></g></g><g fill="#0b3c5d" fill-opacity="1"><g transform="translate(68.884721, 213.419907)"><g><path d="M 8.390625 0 L 0.71875 -47.953125 L 12.1875 -47.953125 L 14.546875 -23.71875 L 14.9375 -15.921875 L 15.390625 -23.78125 L 18.015625 -47.953125 L 29.484375 -47.953125 L 21.6875 0 Z M 8.390625 0 "/></g></g></g><g fill="#0b3c5d" fill-opacity="1"><g transform="translate(99.083543, 213.419907)"><g><path d="M 2.234375 -51.171875 L 2.234375 -59.15625 L 13.6875 -59.15625 L 13.6875 -51.171875 Z M 2.234375 0 L 2.234375 -47.953125 L 13.6875 -47.953125 L 13.6875 0 Z M 2.234375 0 "/></g></g></g><g fill="#0b3c5d" fill-opacity="1"><g transform="translate(115.001786, 213.419907)"><g><path d="M 11.734375 0.53125 C 8.929688 0.53125 6.820312 -0.132812 5.40625 -1.46875 C 3.988281 -2.800781 3.050781 -4.570312 2.59375 -6.78125 C 2.132812 -8.988281 1.90625 -11.816406 1.90625 -15.265625 L 2.03125 -36.890625 C 2.03125 -40.296875 2.890625 -43.078125 4.609375 -45.234375 C 6.335938 -47.398438 8.773438 -48.484375 11.921875 -48.484375 C 15.023438 -48.484375 17.34375 -47.457031 18.875 -45.40625 L 18.875 -56.609375 L 30.328125 -56.609375 L 30.328125 0 L 18.875 0 L 18.875 -5.109375 C 18.21875 -3.234375 17.332031 -1.820312 16.21875 -0.875 C 15.101562 0.0625 13.609375 0.53125 11.734375 0.53125 Z M 16.109375 -8.453125 C 17.242188 -8.453125 17.988281 -9.007812 18.34375 -10.125 C 18.695312 -11.238281 18.875 -12.734375 18.875 -14.609375 L 18.875 -34.65625 C 18.875 -36.050781 18.675781 -37.226562 18.28125 -38.1875 C 17.882812 -39.15625 17.1875 -39.640625 16.1875 -39.640625 C 15.050781 -39.640625 14.296875 -39.191406 13.921875 -38.296875 C 13.546875 -37.398438 13.359375 -36.1875 13.359375 -34.65625 L 13.359375 -14.484375 C 13.359375 -10.460938 14.273438 -8.453125 16.109375 -8.453125 Z M 16.109375 -8.453125 "/></g></g></g><g fill="#328cc1" fill-opacity="1"><g transform="translate(147.634806, 213.419907)"><g><path d="M 2.484375 -56.28125 L 18.015625 -56.28125 C 22.035156 -56.28125 25.050781 -55.164062 27.0625 -52.9375 C 29.070312 -50.707031 30.097656 -47.410156 30.140625 -43.046875 L 30.265625 -16.703125 C 30.304688 -11.160156 29.34375 -6.988281 27.375 -4.1875 C 25.414062 -1.394531 22.164062 0 17.625 0 L 2.484375 0 Z M 15.796875 -9.953125 C 17.847656 -9.953125 18.875 -10.957031 18.875 -12.96875 L 18.875 -42 C 18.875 -43.257812 18.773438 -44.207031 18.578125 -44.84375 C 18.378906 -45.476562 18.015625 -45.90625 17.484375 -46.125 C 16.960938 -46.34375 16.15625 -46.453125 15.0625 -46.453125 L 13.828125 -46.453125 L 13.828125 -9.953125 Z M 15.796875 -9.953125 "/></g></g></g><g fill="#328cc1" fill-opacity="1"><g transform="translate(179.929857, 213.419907)"><g><path d="M 16.25 0.53125 C 6.6875 0.53125 1.90625 -4.425781 1.90625 -14.34375 L 1.90625 -33.609375 C 1.90625 -38.148438 3.179688 -41.765625 5.734375 -44.453125 C 8.285156 -47.140625 11.789062 -48.484375 16.25 -48.484375 C 20.707031 -48.484375 24.210938 -47.140625 26.765625 -44.453125 C 29.316406 -41.765625 30.59375 -38.148438 30.59375 -33.609375 L 30.59375 -14.34375 C 30.59375 -4.425781 25.8125 0.53125 16.25 0.53125 Z M 16.25 -8.328125 C 17.164062 -8.328125 17.84375 -8.648438 18.28125 -9.296875 C 18.71875 -9.953125 18.9375 -10.847656 18.9375 -11.984375 L 18.9375 -35.4375 C 18.9375 -38.238281 18.039062 -39.640625 16.25 -39.640625 C 14.457031 -39.640625 13.5625 -38.238281 13.5625 -35.4375 L 13.5625 -11.984375 C 13.5625 -10.847656 13.78125 -9.953125 14.21875 -9.296875 C 14.65625 -8.648438 15.332031 -8.328125 16.25 -8.328125 Z M 16.25 -8.328125 "/></g></g></g><g fill="#328cc1" fill-opacity="1"><g transform="translate(212.486935, 213.419907)"><g><path d="M 15.71875 0.53125 C 10.789062 0.53125 7.253906 -0.820312 5.109375 -3.53125 C 2.972656 -6.238281 1.90625 -10.28125 1.90625 -15.65625 L 1.90625 -34.921875 C 1.90625 -39.328125 3.171875 -42.6875 5.703125 -45 C 8.234375 -47.320312 11.769531 -48.484375 16.3125 -48.484375 C 25.53125 -48.484375 30.140625 -43.960938 30.140625 -34.921875 L 30.140625 -31.453125 C 30.140625 -27.953125 30.09375 -25.113281 30 -22.9375 L 13.359375 -22.9375 L 13.359375 -13.625 C 13.359375 -11.96875 13.53125 -10.671875 13.875 -9.734375 C 14.226562 -8.796875 14.972656 -8.328125 16.109375 -8.328125 C 16.984375 -8.328125 17.609375 -8.585938 17.984375 -9.109375 C 18.359375 -9.628906 18.578125 -10.226562 18.640625 -10.90625 C 18.703125 -11.582031 18.734375 -12.578125 18.734375 -13.890625 L 18.734375 -18.546875 L 30.140625 -18.546875 L 30.140625 -15.796875 C 30.140625 -10.203125 29.054688 -6.082031 26.890625 -3.4375 C 24.734375 -0.789062 21.007812 0.53125 15.71875 0.53125 Z M 18.734375 -28.625 L 18.734375 -34.78125 C 18.734375 -38.238281 17.882812 -39.96875 16.1875 -39.96875 C 14.257812 -39.96875 13.296875 -38.238281 13.296875 -34.78125 L 13.296875 -28.625 Z M 18.734375 -28.625 "/></g></g></g><g fill="#328cc1" fill-opacity="1"><g transform="translate(244.454452, 213.419907)"><g><path d="M 15.46875 0.53125 C 5.988281 0.53125 1.25 -4.273438 1.25 -13.890625 L 1.3125 -17.6875 L 12.78125 -17.6875 L 12.84375 -12.0625 C 12.84375 -10.914062 13.0625 -10.046875 13.5 -9.453125 C 13.9375 -8.867188 14.65625 -8.578125 15.65625 -8.578125 C 17.1875 -8.578125 17.953125 -9.820312 17.953125 -12.3125 C 17.953125 -14.144531 17.59375 -15.585938 16.875 -16.640625 C 16.15625 -17.691406 15.007812 -18.804688 13.4375 -19.984375 L 7.34375 -24.703125 C 5.238281 -26.316406 3.726562 -27.984375 2.8125 -29.703125 C 1.894531 -31.429688 1.4375 -33.867188 1.4375 -37.015625 C 1.4375 -39.460938 2.082031 -41.546875 3.375 -43.265625 C 4.664062 -44.992188 6.378906 -46.296875 8.515625 -47.171875 C 10.660156 -48.046875 13.039062 -48.484375 15.65625 -48.484375 C 24.957031 -48.484375 29.609375 -43.851562 29.609375 -34.59375 L 29.609375 -33.671875 L 17.75 -33.671875 L 17.75 -35.515625 C 17.75 -36.648438 17.5625 -37.617188 17.1875 -38.421875 C 16.820312 -39.234375 16.203125 -39.640625 15.328125 -39.640625 C 14.546875 -39.640625 13.945312 -39.410156 13.53125 -38.953125 C 13.113281 -38.492188 12.90625 -37.867188 12.90625 -37.078125 C 12.90625 -35.335938 13.582031 -33.984375 14.9375 -33.015625 L 22.015625 -27.84375 C 24.546875 -25.96875 26.488281 -23.925781 27.84375 -21.71875 C 29.195312 -19.507812 29.875 -16.722656 29.875 -13.359375 C 29.875 -8.910156 28.609375 -5.484375 26.078125 -3.078125 C 23.546875 -0.671875 20.007812 0.53125 15.46875 0.53125 Z M 15.46875 0.53125 "/></g></g></g><g fill="#d9b310" fill-opacity="1"><g transform="translate(275.580227, 213.419907)"><g><path d="M 2.484375 -56.28125 L 18.015625 -56.28125 C 22.035156 -56.28125 25.050781 -55.164062 27.0625 -52.9375 C 29.070312 -50.707031 30.097656 -47.410156 30.140625 -43.046875 L 30.265625 -16.703125 C 30.304688 -11.160156 29.34375 -6.988281 27.375 -4.1875 C 25.414062 -1.394531 22.164062 0 17.625 0 L 2.484375 0 Z M 15.796875 -9.953125 C 17.847656 -9.953125 18.875 -10.957031 18.875 -12.96875 L 18.875 -42 C 18.875 -43.257812 18.773438 -44.207031 18.578125 -44.84375 C 18.378906 -45.476562 18.015625 -45.90625 17.484375 -46.125 C 16.960938 -46.34375 16.15625 -46.453125 15.0625 -46.453125 L 13.828125 -46.453125 L 13.828125 -9.953125 Z M 15.796875 -9.953125 "/></g></g></g><g fill="#d9b310" fill-opacity="1"><g transform="translate(307.875278, 213.419907)"><g><path d="M 15.71875 0.53125 C 10.789062 0.53125 7.253906 -0.820312 5.109375 -3.53125 C 2.972656 -6.238281 1.90625 -10.28125 1.90625 -15.65625 L 1.90625 -34.921875 C 1.90625 -39.328125 3.171875 -42.6875 5.703125 -45 C 8.234375 -47.320312 11.769531 -48.484375 16.3125 -48.484375 C 25.53125 -48.484375 30.140625 -43.960938 30.140625 -34.921875 L 30.140625 -31.453125 C 30.140625 -27.953125 30.09375 -25.113281 30 -22.9375 L 13.359375 -22.9375 L 13.359375 -13.625 C 13.359375 -11.96875 13.53125 -10.671875 13.875 -9.734375 C 14.226562 -8.796875 14.972656 -8.328125 16.109375 -8.328125 C 16.984375 -8.328125 17.609375 -8.585938 17.984375 -9.109375 C 18.359375 -9.628906 18.578125 -10.226562 18.640625 -10.90625 C 18.703125 -11.582031 18.734375 -12.578125 18.734375 -13.890625 L 18.734375 -18.546875 L 30.140625 -18.546875 L 30.140625 -15.796875 C 30.140625 -10.203125 29.054688 -6.082031 26.890625 -3.4375 C 24.734375 -0.789062 21.007812 0.53125 15.71875 0.53125 Z M 18.734375 -28.625 L 18.734375 -34.78125 C 18.734375 -38.238281 17.882812 -39.96875 16.1875 -39.96875 C 14.257812 -39.96875 13.296875 -38.238281 13.296875 -34.78125 L 13.296875 -28.625 Z M 18.734375 -28.625 "/></g></g></g><g fill="#d9b310" fill-opacity="1"><g transform="translate(339.842795, 213.419907)"><g><path d="M 8.390625 0 L 0.71875 -47.953125 L 12.1875 -47.953125 L 14.546875 -23.71875 L 14.9375 -15.921875 L 15.390625 -23.78125 L 18.015625 -47.953125 L 29.484375 -47.953125 L 21.6875 0 Z M 8.390625 0 "/></g></g></g></svg>