<svg xmlns="http://www.w3.org/2000/svg" xmlns:xlink="http://www.w3.org/1999/xlink" width="500" zoomAndPan="magnify" viewBox="0 0 375 149.999998" height="200" preserveAspectRatio="xMidYMid meet" version="1.0"><defs><g/></defs><g fill="#0b3c5d" fill-opacity="1"><g transform="translate(7.355746, 100.578301)"><g><path d="M 2.453125 -55.53125 L 17.78125 -55.53125 C 21.738281 -55.53125 24.707031 -54.429688 26.6875 -52.234375 C 28.675781 -50.035156 29.691406 -46.78125 29.734375 -42.46875 L 29.859375 -16.484375 C 29.898438 -11.015625 28.953125 -6.898438 27.015625 -4.140625 C 25.078125 -1.378906 21.867188 0 17.390625 0 L 2.453125 0 Z M 15.578125 -9.828125 C 17.597656 -9.828125 18.609375 -10.816406 18.609375 -12.796875 L 18.609375 -41.4375 C 18.609375 -42.6875 18.507812 -43.625 18.3125 -44.25 C 18.125 -44.875 17.769531 -45.289062 17.25 -45.5 C 16.738281 -45.71875 15.945312 -45.828125 14.875 -45.828125 L 13.640625 -45.828125 L 13.640625 -9.828125 Z M 15.578125 -9.828125 "/></g></g></g><g fill="#0b3c5d" fill-opacity="1"><g transform="translate(39.225145, 100.578301)"><g><path d="M 10.859375 0.515625 C 7.191406 0.515625 4.679688 -0.695312 3.328125 -3.125 C 1.972656 -5.5625 1.296875 -9.046875 1.296875 -13.578125 C 1.296875 -17.285156 1.78125 -20.128906 2.75 -22.109375 C 3.71875 -24.085938 5.0625 -25.539062 6.78125 -26.46875 C 8.507812 -27.394531 11.140625 -28.421875 14.671875 -29.546875 L 17.78125 -30.578125 L 17.78125 -35.421875 C 17.78125 -36.671875 17.53125 -37.628906 17.03125 -38.296875 C 16.539062 -38.960938 15.945312 -39.296875 15.25 -39.296875 C 14.644531 -39.296875 14.117188 -39.015625 13.671875 -38.453125 C 13.222656 -37.898438 13 -37.148438 13 -36.203125 L 13 -33.359375 L 2 -33.359375 L 2 -34.90625 C 2 -39.5625 3.085938 -42.878906 5.265625 -44.859375 C 7.441406 -46.835938 10.988281 -47.828125 15.90625 -47.828125 C 19.820312 -47.828125 23.007812 -46.800781 25.46875 -44.75 C 27.925781 -42.707031 29.15625 -39.8125 29.15625 -36.0625 L 29.15625 0 L 17.90625 0 L 17.90625 -5.625 C 17.34375 -3.6875 16.445312 -2.175781 15.21875 -1.09375 C 13.988281 -0.0195312 12.535156 0.515625 10.859375 0.515625 Z M 15.3125 -8.28125 C 16.175781 -8.28125 16.789062 -8.632812 17.15625 -9.34375 C 17.53125 -10.050781 17.71875 -10.921875 17.71875 -11.953125 L 17.71875 -25.140625 C 16.03125 -24.492188 14.785156 -23.675781 13.984375 -22.6875 C 13.191406 -21.695312 12.796875 -20.316406 12.796875 -18.546875 L 12.796875 -12.46875 C 12.796875 -9.675781 13.632812 -8.28125 15.3125 -8.28125 Z M 15.3125 -8.28125 "/></g></g></g><g fill="#0b3c5d" fill-opacity="1"><g transform="translate(70.448096, 100.578301)"><g><path d="M 8.28125 0 L 0.71875 -47.3125 L 12.015625 -47.3125 L 14.34375 -23.40625 L 14.734375 -15.703125 L 15.1875 -23.46875 L 17.78125 -47.3125 L 29.09375 -47.3125 L 21.390625 0 Z M 8.28125 0 "/></g></g></g><g fill="#0b3c5d" fill-opacity="1"><g transform="translate(100.248894, 100.578301)"><g><path d="M 2.203125 -50.484375 L 2.203125 -58.375 L 13.515625 -58.375 L 13.515625 -50.484375 Z M 2.203125 0 L 2.203125 -47.3125 L 13.515625 -47.3125 L 13.515625 0 Z M 2.203125 0 "/></g></g></g><g fill="#0b3c5d" fill-opacity="1"><g transform="translate(115.957333, 100.578301)"><g><path d="M 11.578125 0.515625 C 8.816406 0.515625 6.734375 -0.140625 5.328125 -1.453125 C 3.929688 -2.765625 3.003906 -4.507812 2.546875 -6.6875 C 2.097656 -8.863281 1.875 -11.65625 1.875 -15.0625 L 2 -36.390625 C 2 -39.753906 2.847656 -42.5 4.546875 -44.625 C 6.253906 -46.757812 8.660156 -47.828125 11.765625 -47.828125 C 14.828125 -47.828125 17.109375 -46.816406 18.609375 -44.796875 L 18.609375 -55.84375 L 29.921875 -55.84375 L 29.921875 0 L 18.609375 0 L 18.609375 -5.046875 C 17.960938 -3.191406 17.085938 -1.800781 15.984375 -0.875 C 14.890625 0.0507812 13.421875 0.515625 11.578125 0.515625 Z M 15.90625 -8.34375 C 17.019531 -8.34375 17.75 -8.890625 18.09375 -9.984375 C 18.4375 -11.085938 18.609375 -12.566406 18.609375 -14.421875 L 18.609375 -34.1875 C 18.609375 -35.570312 18.414062 -36.738281 18.03125 -37.6875 C 17.644531 -38.632812 16.957031 -39.109375 15.96875 -39.109375 C 14.84375 -39.109375 14.097656 -38.664062 13.734375 -37.78125 C 13.367188 -36.894531 13.1875 -35.695312 13.1875 -34.1875 L 13.1875 -14.28125 C 13.1875 -10.320312 14.09375 -8.34375 15.90625 -8.34375 Z M 15.90625 -8.34375 "/></g></g></g><g fill="#328cc1" fill-opacity="1"><g transform="translate(148.160244, 100.578301)"><g><path d="M 2.453125 -55.53125 L 17.78125 -55.53125 C 21.738281 -55.53125 24.707031 -54.429688 26.6875 -52.234375 C 28.675781 -50.035156 29.691406 -46.78125 29.734375 -42.46875 L 29.859375 -16.484375 C 29.898438 -11.015625 28.953125 -6.898438 27.015625 -4.140625 C 25.078125 -1.378906 21.867188 0 17.390625 0 L 2.453125 0 Z M 15.578125 -9.828125 C 17.597656 -9.828125 18.609375 -10.816406 18.609375 -12.796875 L 18.609375 -41.4375 C 18.609375 -42.6875 18.507812 -43.625 18.3125 -44.25 C 18.125 -44.875 17.769531 -45.289062 17.25 -45.5 C 16.738281 -45.71875 15.945312 -45.828125 14.875 -45.828125 L 13.640625 -45.828125 L 13.640625 -9.828125 Z M 15.578125 -9.828125 "/></g></g></g><g fill="#328cc1" fill-opacity="1"><g transform="translate(180.029643, 100.578301)"><g><path d="M 16.03125 0.515625 C 6.59375 0.515625 1.875 -4.375 1.875 -14.15625 L 1.875 -33.15625 C 1.875 -37.644531 3.132812 -41.210938 5.65625 -43.859375 C 8.175781 -46.503906 11.632812 -47.828125 16.03125 -47.828125 C 20.425781 -47.828125 23.882812 -46.503906 26.40625 -43.859375 C 28.925781 -41.210938 30.1875 -37.644531 30.1875 -33.15625 L 30.1875 -14.15625 C 30.1875 -4.375 25.46875 0.515625 16.03125 0.515625 Z M 16.03125 -8.203125 C 16.9375 -8.203125 17.601562 -8.523438 18.03125 -9.171875 C 18.46875 -9.828125 18.6875 -10.710938 18.6875 -11.828125 L 18.6875 -34.96875 C 18.6875 -37.726562 17.800781 -39.109375 16.03125 -39.109375 C 14.257812 -39.109375 13.375 -37.726562 13.375 -34.96875 L 13.375 -11.828125 C 13.375 -10.710938 13.585938 -9.828125 14.015625 -9.171875 C 14.453125 -8.523438 15.125 -8.203125 16.03125 -8.203125 Z M 16.03125 -8.203125 "/></g></g></g><g fill="#328cc1" fill-opacity="1"><g transform="translate(212.157615, 100.578301)"><g><path d="M 15.515625 0.515625 C 10.640625 0.515625 7.144531 -0.816406 5.03125 -3.484375 C 2.925781 -6.160156 1.875 -10.148438 1.875 -15.453125 L 1.875 -34.453125 C 1.875 -38.804688 3.125 -42.125 5.625 -44.40625 C 8.125 -46.6875 11.613281 -47.828125 16.09375 -47.828125 C 25.1875 -47.828125 29.734375 -43.367188 29.734375 -34.453125 L 29.734375 -31.03125 C 29.734375 -27.582031 29.691406 -24.78125 29.609375 -22.625 L 13.1875 -22.625 L 13.1875 -13.4375 C 13.1875 -11.800781 13.359375 -10.519531 13.703125 -9.59375 C 14.046875 -8.664062 14.78125 -8.203125 15.90625 -8.203125 C 16.757812 -8.203125 17.367188 -8.460938 17.734375 -8.984375 C 18.109375 -9.503906 18.328125 -10.097656 18.390625 -10.765625 C 18.453125 -11.429688 18.484375 -12.410156 18.484375 -13.703125 L 18.484375 -18.296875 L 29.734375 -18.296875 L 29.734375 -15.578125 C 29.734375 -10.054688 28.664062 -5.992188 26.53125 -3.390625 C 24.394531 -0.785156 20.722656 0.515625 15.515625 0.515625 Z M 18.484375 -28.25 L 18.484375 -34.328125 C 18.484375 -37.734375 17.644531 -39.4375 15.96875 -39.4375 C 14.070312 -39.4375 13.125 -37.734375 13.125 -34.328125 L 13.125 -28.25 Z M 18.484375 -28.25 "/></g></g></g><g fill="#328cc1" fill-opacity="1"><g transform="translate(243.703796, 100.578301)"><g><path d="M 15.25 0.515625 C 5.90625 0.515625 1.234375 -4.222656 1.234375 -13.703125 L 1.296875 -17.453125 L 12.609375 -17.453125 L 12.671875 -11.890625 C 12.671875 -10.773438 12.882812 -9.925781 13.3125 -9.34375 C 13.75 -8.757812 14.460938 -8.46875 15.453125 -8.46875 C 16.960938 -8.46875 17.71875 -9.695312 17.71875 -12.15625 C 17.71875 -13.96875 17.359375 -15.390625 16.640625 -16.421875 C 15.929688 -17.453125 14.800781 -18.550781 13.25 -19.71875 L 7.234375 -24.375 C 5.171875 -25.96875 3.6875 -27.613281 2.78125 -29.3125 C 1.875 -31.019531 1.421875 -33.421875 1.421875 -36.515625 C 1.421875 -38.929688 2.054688 -40.988281 3.328125 -42.6875 C 4.597656 -44.394531 6.289062 -45.675781 8.40625 -46.53125 C 10.519531 -47.394531 12.867188 -47.828125 15.453125 -47.828125 C 24.628906 -47.828125 29.21875 -43.257812 29.21875 -34.125 L 29.21875 -33.21875 L 17.515625 -33.21875 L 17.515625 -35.03125 C 17.515625 -36.15625 17.332031 -37.113281 16.96875 -37.90625 C 16.601562 -38.707031 15.988281 -39.109375 15.125 -39.109375 C 14.351562 -39.109375 13.757812 -38.878906 13.34375 -38.421875 C 12.9375 -37.972656 12.734375 -37.363281 12.734375 -36.59375 C 12.734375 -34.863281 13.398438 -33.523438 14.734375 -32.578125 L 21.71875 -27.46875 C 24.21875 -25.613281 26.132812 -23.597656 27.46875 -21.421875 C 28.800781 -19.242188 29.46875 -16.5 29.46875 -13.1875 C 29.46875 -8.789062 28.21875 -5.40625 25.71875 -3.03125 C 23.226562 -0.664062 19.738281 0.515625 15.25 0.515625 Z M 15.25 0.515625 "/></g></g></g><g fill="#d9b310" fill-opacity="1"><g transform="translate(274.419329, 100.578301)"><g><path d="M 2.453125 -55.53125 L 17.78125 -55.53125 C 21.738281 -55.53125 24.707031 -54.429688 26.6875 -52.234375 C 28.675781 -50.035156 29.691406 -46.78125 29.734375 -42.46875 L 29.859375 -16.484375 C 29.898438 -11.015625 28.953125 -6.898438 27.015625 -4.140625 C 25.078125 -1.378906 21.867188 0 17.390625 0 L 2.453125 0 Z M 15.578125 -9.828125 C 17.597656 -9.828125 18.609375 -10.816406 18.609375 -12.796875 L 18.609375 -41.4375 C 18.609375 -42.6875 18.507812 -43.625 18.3125 -44.25 C 18.125 -44.875 17.769531 -45.289062 17.25 -45.5 C 16.738281 -45.71875 15.945312 -45.828125 14.875 -45.828125 L 13.640625 -45.828125 L 13.640625 -9.828125 Z M 15.578125 -9.828125 "/></g></g></g><g fill="#d9b310" fill-opacity="1"><g transform="translate(306.288728, 100.578301)"><g><path d="M 15.515625 0.515625 C 10.640625 0.515625 7.144531 -0.816406 5.03125 -3.484375 C 2.925781 -6.160156 1.875 -10.148438 1.875 -15.453125 L 1.875 -34.453125 C 1.875 -38.804688 3.125 -42.125 5.625 -44.40625 C 8.125 -46.6875 11.613281 -47.828125 16.09375 -47.828125 C 25.1875 -47.828125 29.734375 -43.367188 29.734375 -34.453125 L 29.734375 -31.03125 C 29.734375 -27.582031 29.691406 -24.78125 29.609375 -22.625 L 13.1875 -22.625 L 13.1875 -13.4375 C 13.1875 -11.800781 13.359375 -10.519531 13.703125 -9.59375 C 14.046875 -8.664062 14.78125 -8.203125 15.90625 -8.203125 C 16.757812 -8.203125 17.367188 -8.460938 17.734375 -8.984375 C 18.109375 -9.503906 18.328125 -10.097656 18.390625 -10.765625 C 18.453125 -11.429688 18.484375 -12.410156 18.484375 -13.703125 L 18.484375 -18.296875 L 29.734375 -18.296875 L 29.734375 -15.578125 C 29.734375 -10.054688 28.664062 -5.992188 26.53125 -3.390625 C 24.394531 -0.785156 20.722656 0.515625 15.515625 0.515625 Z M 18.484375 -28.25 L 18.484375 -34.328125 C 18.484375 -37.734375 17.644531 -39.4375 15.96875 -39.4375 C 14.070312 -39.4375 13.125 -37.734375 13.125 -34.328125 L 13.125 -28.25 Z M 18.484375 -28.25 "/></g></g></g><g fill="#d9b310" fill-opacity="1"><g transform="translate(337.834908, 100.578301)"><g><path d="M 8.28125 0 L 0.71875 -47.3125 L 12.015625 -47.3125 L 14.34375 -23.40625 L 14.734375 -15.703125 L 15.1875 -23.46875 L 17.78125 -47.3125 L 29.09375 -47.3125 L 21.390625 0 Z M 8.28125 0 "/></g></g></g></svg>